<?xml version="1.0" encoding="UTF-8"?>
<!DOCTYPE svg PUBLIC "-//W3C//DTD SVG 1.1//EN" "http://www.w3.org/Graphics/SVG/1.1/DTD/svg11.dtd">
<svg xmlns="http://www.w3.org/2000/svg" version="1.1" width="500px" height="500px" style="shape-rendering:geometricPrecision; text-rendering:geometricPrecision; image-rendering:optimizeQuality; fill-rule:evenodd; clip-rule:evenodd" xmlns:xlink="http://www.w3.org/1999/xlink">
<g><path style="opacity:0.004" fill="#000000" d="M 10.5,1.5 C 11.8333,2.16667 11.8333,2.16667 10.5,1.5 Z"/></g>
<g><path style="opacity:0.004" fill="#000000" d="M 21.5,3.5 C 22.8333,4.16667 22.8333,4.16667 21.5,3.5 Z"/></g>
<g><path style="opacity:0.004" fill="#000000" d="M 268.5,4.5 C 269.833,5.16667 269.833,5.16667 268.5,4.5 Z"/></g>
<g><path style="opacity:0.004" fill="#000000" d="M 204.5,11.5 C 205.833,12.1667 205.833,12.1667 204.5,11.5 Z"/></g>
<g><path style="opacity:0.004" fill="#000000" d="M 44.5,17.5 C 45.8333,18.1667 45.8333,18.1667 44.5,17.5 Z"/></g>
<g><path style="opacity:0.004" fill="#000000" d="M 81.5,35.5 C 82.8333,36.1667 82.8333,36.1667 81.5,35.5 Z"/></g>
<g><path style="opacity:0.004" fill="#000000" d="M 26.5,36.5 C 27.8333,37.1667 27.8333,37.1667 26.5,36.5 Z"/></g>
<g><path style="opacity:0.004" fill="#000000" d="M 333.5,36.5 C 334.833,37.1667 334.833,37.1667 333.5,36.5 Z"/></g>
<g><path style="opacity:0.004" fill="#000000" d="M 79.5,40.5 C 80.8333,41.1667 80.8333,41.1667 79.5,40.5 Z"/></g>
<g><path style="opacity:0.004" fill="#000000" d="M 97.5,47.5 C 98.8333,48.1667 98.8333,48.1667 97.5,47.5 Z"/></g>
<g><path style="opacity:0.004" fill="#000000" d="M 442.5,48.5 C 443.833,49.1667 443.833,49.1667 442.5,48.5 Z"/></g>
<g><path style="opacity:0.004" fill="#000000" d="M 312.5,51.5 C 313.833,52.1667 313.833,52.1667 312.5,51.5 Z"/></g>
<g><path style="opacity:0.004" fill="#000000" d="M 311.5,59.5 C 312.833,60.1667 312.833,60.1667 311.5,59.5 Z"/></g>
<g><path style="opacity:0.004" fill="#000000" d="M 5.5,76.5 C 6.83333,77.1667 6.83333,77.1667 5.5,76.5 Z"/></g>
<g><path style="opacity:0.999" fill="#d3d3d4" d="M 432.5,86.5 C 440.167,86.5 447.833,86.5 455.5,86.5C 455.5,131.833 455.5,177.167 455.5,222.5C 475.747,220.6 487.247,229.6 490,249.5C 490.929,270.537 490.596,291.537 489,312.5C 483.006,327.221 472.172,333.221 456.5,330.5C 455.667,353.826 455.167,377.16 455,400.5C 444.916,401.486 434.749,401.819 424.5,401.5C 424.5,378.167 424.5,354.833 424.5,331.5C 391.833,331.5 359.167,331.5 326.5,331.5C 326.667,354.502 326.5,377.502 326,400.5C 315.667,401.833 305.333,401.833 295,400.5C 294.5,377.502 294.333,354.502 294.5,331.5C 275.164,331.333 255.83,331.5 236.5,332C 228.157,375.438 201.991,399.938 158,405.5C 136.533,407.458 115.367,404.291 94.5,396C 68.9144,381.716 54.0811,359.883 50,330.5C 35.9699,334.161 23.9699,330.828 14,320.5C 11.3634,316.928 9.69669,312.928 9,308.5C 8.33333,287.5 8.33333,266.5 9,245.5C 11.6267,234.205 18.46,226.705 29.5,223C 36.1667,222.667 42.8333,222.333 49.5,222C 48.1918,190.882 48.1918,159.715 49.5,128.5C 60.0821,128.18 70.5821,128.513 81,129.5C 81.5,160.498 81.6666,191.498 81.5,222.5C 125.5,222.5 169.5,222.5 213.5,222.5C 213.459,191.326 213.459,159.993 213.5,128.5C 221.42,128.185 229.253,128.518 237,129.5C 237.5,160.498 237.667,191.498 237.5,222.5C 256.5,222.5 275.5,222.5 294.5,222.5C 294.168,212.145 294.501,201.812 295.5,191.5C 302.45,190.37 309.45,190.203 316.5,191C 317.516,191.519 318.182,192.353 318.5,193.5C 319.435,203.179 320.435,212.845 321.5,222.5C 323.167,222.5 324.833,222.5 326.5,222.5C 331.324,206.677 341.324,195.511 356.5,189C 371.311,186.22 385.478,188.053 399,194.5C 398.723,202.274 397.556,209.941 395.5,217.5C 383.523,213.271 371.189,211.438 358.5,212C 352.039,213.392 346.705,216.559 342.5,221.5C 369.733,222.828 396.899,222.828 424,221.5C 423.388,176.614 423.555,131.948 424.5,87.5C 427.385,87.8064 430.052,87.4731 432.5,86.5 Z M 84.5,331.5 C 126.5,331.5 168.5,331.5 210.5,331.5C 202.568,365.746 180.902,383.079 145.5,383.5C 111.265,382.246 90.9319,364.913 84.5,331.5 Z"/></g>
<g><path style="opacity:0.004" fill="#000000" d="M 367.5,88.5 C 368.833,89.1667 368.833,89.1667 367.5,88.5 Z"/></g>
<g><path style="opacity:0.004" fill="#000000" d="M 385.5,98.5 C 386.833,99.1667 386.833,99.1667 385.5,98.5 Z"/></g>
<g><path style="opacity:0.004" fill="#000000" d="M 325.5,102.5 C 326.833,103.167 326.833,103.167 325.5,102.5 Z"/></g>
<g><path style="opacity:0.004" fill="#000000" d="M 301.5,106.5 C 302.833,107.167 302.833,107.167 301.5,106.5 Z"/></g>
<g><path style="opacity:0.004" fill="#000000" d="M 488.5,110.5 C 489.833,111.167 489.833,111.167 488.5,110.5 Z"/></g>
<g><path style="opacity:0.004" fill="#000000" d="M 66.5,118.5 C 67.8333,119.167 67.8333,119.167 66.5,118.5 Z"/></g>
<g><path style="opacity:0.004" fill="#000000" d="M 362.5,119.5 C 363.833,120.167 363.833,120.167 362.5,119.5 Z"/></g>
<g><path style="opacity:0.004" fill="#000000" d="M 253.5,123.5 C 254.833,124.167 254.833,124.167 253.5,123.5 Z"/></g>
<g><path style="opacity:0.004" fill="#000000" d="M 249.5,141.5 C 250.833,142.167 250.833,142.167 249.5,141.5 Z"/></g>
<g><path style="opacity:0.004" fill="#000000" d="M 197.5,174.5 C 198.833,175.167 198.833,175.167 197.5,174.5 Z"/></g>
<g><path style="opacity:0.004" fill="#000000" d="M 173.5,180.5 C 174.833,181.167 174.833,181.167 173.5,180.5 Z"/></g>
<g><path style="opacity:0.004" fill="#000000" d="M 252.5,190.5 C 253.833,191.167 253.833,191.167 252.5,190.5 Z"/></g>
<g><path style="opacity:0.004" fill="#000000" d="M 321.5,195.5 C 322.833,196.167 322.833,196.167 321.5,195.5 Z"/></g>
<g><path style="opacity:0.004" fill="#000000" d="M 165.5,206.5 C 166.833,207.167 166.833,207.167 165.5,206.5 Z"/></g>
<g><path style="opacity:1" fill="#808892" d="M 121.5,249.5 C 103.833,249.5 86.1667,249.5 68.5,249.5C 68.5,252.833 68.5,256.167 68.5,259.5C 68.1667,259.5 67.8333,259.5 67.5,259.5C 67.5,255.833 67.5,252.167 67.5,248.5C 85.6744,248.17 103.674,248.503 121.5,249.5 Z"/></g>
<g><path style="opacity:1" fill="#888f99" d="M 135.5,249.5 C 150.324,248.504 165.324,248.171 180.5,248.5C 180.5,252.5 180.5,256.5 180.5,260.5C 166.167,260.5 151.833,260.5 137.5,260.5C 151.323,259.504 165.323,259.171 179.5,259.5C 179.5,256.167 179.5,252.833 179.5,249.5C 164.833,249.5 150.167,249.5 135.5,249.5 Z"/></g>
<g><path style="opacity:1" fill="#818892" d="M 356.5,249.5 C 338.833,249.5 321.167,249.5 303.5,249.5C 303.5,252.833 303.5,256.167 303.5,259.5C 303.167,259.5 302.833,259.5 302.5,259.5C 302.5,255.833 302.5,252.167 302.5,248.5C 320.674,248.17 338.674,248.503 356.5,249.5 Z"/></g>
<g><path style="opacity:1" fill="#0d1b2d" d="M 121.5,249.5 C 121.5,252.833 121.5,256.167 121.5,259.5C 114.167,259.5 106.833,259.5 99.5,259.5C 99.5,273.833 99.5,288.167 99.5,302.5C 96.1667,302.5 92.8333,302.5 89.5,302.5C 89.5,288.167 89.5,273.833 89.5,259.5C 82.5,259.5 75.5,259.5 68.5,259.5C 68.5,256.167 68.5,252.833 68.5,249.5C 86.1667,249.5 103.833,249.5 121.5,249.5 Z"/></g>
<g><path style="opacity:1" fill="#666b74" d="M 297.5,249.5 C 294.167,249.5 290.833,249.5 287.5,249.5C 287.832,261.582 287.499,272.915 286.5,283.5C 286.5,271.833 286.5,260.167 286.5,248.5C 290.371,248.185 294.038,248.518 297.5,249.5 Z"/></g>
<g><path style="opacity:1" fill="#0d1b2c" d="M 356.5,249.5 C 356.5,252.833 356.5,256.167 356.5,259.5C 349.167,259.5 341.833,259.5 334.5,259.5C 334.5,270.167 334.5,280.833 334.5,291.5C 341.313,292.491 348.313,292.825 355.5,292.5C 355.5,295.833 355.5,299.167 355.5,302.5C 338.167,302.5 320.833,302.5 303.5,302.5C 303.5,299.167 303.5,295.833 303.5,292.5C 310.687,292.825 317.687,292.491 324.5,291.5C 324.5,280.833 324.5,270.167 324.5,259.5C 317.5,259.5 310.5,259.5 303.5,259.5C 303.5,256.167 303.5,252.833 303.5,249.5C 321.167,249.5 338.833,249.5 356.5,249.5 Z"/></g>
<g><path style="opacity:1" fill="#0f1b2c" d="M 418.5,270.5 C 418.5,267.167 418.5,263.833 418.5,260.5C 420.415,260.784 422.081,260.451 423.5,259.5C 423.5,256.167 423.5,252.833 423.5,249.5C 426.833,249.5 430.167,249.5 433.5,249.5C 433.897,254.959 433.397,260.292 432,265.5C 428.469,269.623 423.969,271.29 418.5,270.5 Z"/></g>
<g><path style="opacity:1" fill="#0e1c2d" d="M 286.5,283.5 C 287.499,272.915 287.832,261.582 287.5,249.5C 290.833,249.5 294.167,249.5 297.5,249.5C 297.667,266.17 297.5,282.837 297,299.5C 294.668,302.791 291.835,303.291 288.5,301C 277.333,289.833 266.167,278.667 255,267.5C 254.5,279.162 254.333,290.829 254.5,302.5C 251.167,302.5 247.833,302.5 244.5,302.5C 244.333,285.497 244.5,268.497 245,251.5C 247.153,249.556 249.653,249.056 252.5,250C 263.702,261.369 275.035,272.535 286.5,283.5 Z"/></g>
<g><path style="opacity:1" fill="#0e1c2d" d="M 135.5,249.5 C 150.167,249.5 164.833,249.5 179.5,249.5C 179.5,252.833 179.5,256.167 179.5,259.5C 165.323,259.171 151.323,259.504 137.5,260.5C 137.5,263.833 137.5,267.167 137.5,270.5C 151.5,270.5 165.5,270.5 179.5,270.5C 179.5,273.833 179.5,277.167 179.5,280.5C 165.323,280.171 151.323,280.504 137.5,281.5C 137.5,284.833 137.5,288.167 137.5,291.5C 151.323,292.496 165.323,292.829 179.5,292.5C 179.5,295.833 179.5,299.167 179.5,302.5C 164.163,302.667 148.83,302.5 133.5,302C 129.835,300.332 127.668,297.499 127,293.5C 126.333,281.167 126.333,268.833 127,256.5C 128.837,252.819 131.67,250.485 135.5,249.5 Z"/></g>
<g><path style="opacity:1" fill="#8e969f" d="M 238.5,259.5 C 224.677,260.496 210.677,260.829 196.5,260.5C 196.5,263.833 196.5,267.167 196.5,270.5C 195.518,267.038 195.185,263.371 195.5,259.5C 209.833,259.5 224.167,259.5 238.5,259.5 Z"/></g>
<g><path style="opacity:1" fill="#949ba5" d="M 414.5,249.5 C 415.482,252.962 415.815,256.629 415.5,260.5C 401.167,260.5 386.833,260.5 372.5,260.5C 386.323,259.504 400.323,259.171 414.5,259.5C 414.5,256.167 414.5,252.833 414.5,249.5 Z"/></g>
<g><path style="opacity:1" fill="#474e57" d="M 423.5,259.5 C 422.081,260.451 420.415,260.784 418.5,260.5C 418.5,263.833 418.5,267.167 418.5,270.5C 417.518,267.038 417.185,263.371 417.5,259.5C 419.5,259.5 421.5,259.5 423.5,259.5 Z"/></g>
<g><path style="opacity:1" fill="#828994" d="M 356.5,259.5 C 349.687,260.491 342.687,260.825 335.5,260.5C 335.5,270.833 335.5,281.167 335.5,291.5C 335.167,291.5 334.833,291.5 334.5,291.5C 334.5,280.833 334.5,270.167 334.5,259.5C 341.833,259.5 349.167,259.5 356.5,259.5 Z"/></g>
<g><path style="opacity:1" fill="#0f1c2d" d="M 414.5,249.5 C 414.5,252.833 414.5,256.167 414.5,259.5C 400.323,259.171 386.323,259.504 372.5,260.5C 372.5,263.833 372.5,267.167 372.5,270.5C 386.5,270.5 400.5,270.5 414.5,270.5C 414.5,273.833 414.5,277.167 414.5,280.5C 400.323,280.171 386.323,280.504 372.5,281.5C 372.5,284.833 372.5,288.167 372.5,291.5C 386.323,292.496 400.323,292.829 414.5,292.5C 414.5,295.833 414.5,299.167 414.5,302.5C 398.429,302.954 382.429,302.454 366.5,301C 364.106,299.048 362.606,296.548 362,293.5C 361.333,281.167 361.333,268.833 362,256.5C 363.458,254.04 365.291,251.873 367.5,250C 383.163,249.5 398.83,249.333 414.5,249.5 Z"/></g>
<g><path style="opacity:1" fill="#a1a9af" d="M 67.5,259.5 C 67.8333,259.5 68.1667,259.5 68.5,259.5C 75.5,259.5 82.5,259.5 89.5,259.5C 89.5,273.833 89.5,288.167 89.5,302.5C 88.5042,288.677 88.1709,274.677 88.5,260.5C 81.3134,260.825 74.3134,260.491 67.5,259.5 Z"/></g>
<g><path style="opacity:1" fill="#838991" d="M 121.5,259.5 C 114.687,260.491 107.687,260.825 100.5,260.5C 100.829,274.677 100.496,288.677 99.5,302.5C 99.5,288.167 99.5,273.833 99.5,259.5C 106.833,259.5 114.167,259.5 121.5,259.5 Z"/></g>
<g><path style="opacity:1" fill="#111e30" d="M 238.5,259.5 C 224.167,259.5 209.833,259.5 195.5,259.5C 195.185,263.371 195.518,267.038 196.5,270.5C 210.5,270.5 224.5,270.5 238.5,270.5C 238.5,274.167 238.5,277.833 238.5,281.5C 224.5,281.5 210.5,281.5 196.5,281.5C 196.5,284.833 196.5,288.167 196.5,291.5C 210.5,291.5 224.5,291.5 238.5,291.5C 238.5,295.167 238.5,298.833 238.5,302.5C 223.163,302.667 207.83,302.5 192.5,302C 189.667,300.5 187.5,298.333 186,295.5C 185.333,282.5 185.333,269.5 186,256.5C 186.786,253.417 188.619,251.251 191.5,250C 207.163,249.5 222.83,249.333 238.5,249.5C 238.5,252.833 238.5,256.167 238.5,259.5 Z"/></g>
<g><path style="opacity:1" fill="#a3a9b2" d="M 302.5,259.5 C 302.833,259.5 303.167,259.5 303.5,259.5C 310.5,259.5 317.5,259.5 324.5,259.5C 324.5,270.167 324.5,280.833 324.5,291.5C 324.167,291.5 323.833,291.5 323.5,291.5C 323.5,281.167 323.5,270.833 323.5,260.5C 316.313,260.825 309.313,260.491 302.5,259.5 Z"/></g>
<g><path style="opacity:1" fill="#5b626d" d="M 179.5,270.5 C 180.482,273.962 180.815,277.629 180.5,281.5C 166.167,281.5 151.833,281.5 137.5,281.5C 151.323,280.504 165.323,280.171 179.5,280.5C 179.5,277.167 179.5,273.833 179.5,270.5 Z"/></g>
<g><path style="opacity:1" fill="#5a626d" d="M 414.5,270.5 C 415.482,273.962 415.815,277.629 415.5,281.5C 401.167,281.5 386.833,281.5 372.5,281.5C 386.323,280.504 400.323,280.171 414.5,280.5C 414.5,277.167 414.5,273.833 414.5,270.5 Z"/></g>
<g><path style="opacity:1" fill="#555c65" d="M 137.5,291.5 C 151.833,291.5 166.167,291.5 180.5,291.5C 180.815,295.371 180.482,299.038 179.5,302.5C 179.5,299.167 179.5,295.833 179.5,292.5C 165.323,292.829 151.323,292.496 137.5,291.5 Z"/></g>
<g><path style="opacity:1" fill="#565d67" d="M 323.5,291.5 C 323.833,291.5 324.167,291.5 324.5,291.5C 317.687,292.491 310.687,292.825 303.5,292.5C 303.5,295.833 303.5,299.167 303.5,302.5C 302.518,299.038 302.185,295.371 302.5,291.5C 309.5,291.5 316.5,291.5 323.5,291.5 Z"/></g>
<g><path style="opacity:1" fill="#4c535c" d="M 334.5,291.5 C 334.833,291.5 335.167,291.5 335.5,291.5C 342.5,291.5 349.5,291.5 356.5,291.5C 356.815,295.371 356.482,299.038 355.5,302.5C 355.5,299.167 355.5,295.833 355.5,292.5C 348.313,292.825 341.313,292.491 334.5,291.5 Z"/></g>
<g><path style="opacity:1" fill="#555d68" d="M 372.5,291.5 C 386.833,291.5 401.167,291.5 415.5,291.5C 415.815,295.371 415.482,299.038 414.5,302.5C 414.5,299.167 414.5,295.833 414.5,292.5C 400.323,292.829 386.323,292.496 372.5,291.5 Z"/></g>
<g><path style="opacity:0.004" fill="#000000" d="M 250.5,334.5 C 251.833,335.167 251.833,335.167 250.5,334.5 Z"/></g>
<g><path style="opacity:0.004" fill="#000000" d="M 356.5,336.5 C 357.833,337.167 357.833,337.167 356.5,336.5 Z"/></g>
<g><path style="opacity:0.004" fill="#000000" d="M 6.5,341.5 C 7.83333,342.167 7.83333,342.167 6.5,341.5 Z"/></g>
<g><path style="opacity:0.004" fill="#000000" d="M 292.5,355.5 C 293.833,356.167 293.833,356.167 292.5,355.5 Z"/></g>
<g><path style="opacity:0.004" fill="#000000" d="M 17.5,361.5 C 18.8333,362.167 18.8333,362.167 17.5,361.5 Z"/></g>
<g><path style="opacity:0.004" fill="#000000" d="M 232.5,375.5 C 233.833,376.167 233.833,376.167 232.5,375.5 Z"/></g>
<g><path style="opacity:0.004" fill="#000000" d="M 336.5,378.5 C 337.833,379.167 337.833,379.167 336.5,378.5 Z"/></g>
<g><path style="opacity:0.004" fill="#000000" d="M 469.5,387.5 C 470.833,388.167 470.833,388.167 469.5,387.5 Z"/></g>
<g><path style="opacity:0.004" fill="#000000" d="M 216.5,401.5 C 217.833,402.167 217.833,402.167 216.5,401.5 Z"/></g>
<g><path style="opacity:0.004" fill="#000000" d="M 183.5,404.5 C 184.833,405.167 184.833,405.167 183.5,404.5 Z"/></g>
<g><path style="opacity:0.004" fill="#000000" d="M 408.5,405.5 C 409.833,406.167 409.833,406.167 408.5,405.5 Z"/></g>
<g><path style="opacity:0.004" fill="#000000" d="M 492.5,410.5 C 493.833,411.167 493.833,411.167 492.5,410.5 Z"/></g>
<g><path style="opacity:0.004" fill="#000000" d="M 425.5,414.5 C 426.833,415.167 426.833,415.167 425.5,414.5 Z"/></g>
<g><path style="opacity:0.004" fill="#000000" d="M 474.5,431.5 C 475.833,432.167 475.833,432.167 474.5,431.5 Z"/></g>
<g><path style="opacity:0.004" fill="#000000" d="M 299.5,435.5 C 300.833,436.167 300.833,436.167 299.5,435.5 Z"/></g>
<g><path style="opacity:0.004" fill="#000000" d="M 119.5,436.5 C 120.833,437.167 120.833,437.167 119.5,436.5 Z"/></g>
<g><path style="opacity:0.004" fill="#000000" d="M 361.5,439.5 C 362.833,440.167 362.833,440.167 361.5,439.5 Z"/></g>
<g><path style="opacity:0.004" fill="#000000" d="M 241.5,440.5 C 242.833,441.167 242.833,441.167 241.5,440.5 Z"/></g>
<g><path style="opacity:0.004" fill="#000000" d="M 122.5,455.5 C 123.833,456.167 123.833,456.167 122.5,455.5 Z"/></g>
<g><path style="opacity:0.004" fill="#000000" d="M 487.5,458.5 C 488.833,459.167 488.833,459.167 487.5,458.5 Z"/></g>
<g><path style="opacity:0.004" fill="#000000" d="M 393.5,463.5 C 394.833,464.167 394.833,464.167 393.5,463.5 Z"/></g>
<g><path style="opacity:0.004" fill="#000000" d="M 217.5,464.5 C 218.833,465.167 218.833,465.167 217.5,464.5 Z"/></g>
<g><path style="opacity:0.004" fill="#000000" d="M 13.5,476.5 C 14.8333,477.167 14.8333,477.167 13.5,476.5 Z"/></g>
<g><path style="opacity:0.004" fill="#000000" d="M 443.5,478.5 C 444.833,479.167 444.833,479.167 443.5,478.5 Z"/></g>
<g><path style="opacity:0.004" fill="#000000" d="M 80.5,492.5 C 81.8333,493.167 81.8333,493.167 80.5,492.5 Z"/></g>
<g><path style="opacity:0.004" fill="#000000" d="M 441.5,496.5 C 442.833,497.167 442.833,497.167 441.5,496.5 Z"/></g>
</svg>
